HIERARCHY
ROOT hip
{
  OFFSET 0 0 0
  CHANNELS 6 Xposition Yposition Zposition Zrotation Yrotation Xrotation
  JOINT abdomen
  {
    OFFSET 0 20.6881 -0.73152
    CHANNELS 3 Zrotation Xrotation Yrotation
    JOINT chest
    {
      OFFSET 0 11.7043 -0.48768
      CHANNELS 3 Zrotation Xrotation Yrotation
      JOINT neck
      {
        OFFSET 0 22.1894 -2.19456
        CHANNELS 3 Zrotation Xrotation Yrotation
        JOINT head
        {
          OFFSET -0.24384 7.07133 1.2192
          CHANNELS 3 Zrotation Xrotation Yrotation
          JOINT leftEye
          {
            OFFSET 4.14528 8.04674 8.04672
            CHANNELS 3 Zrotation Xrotation Yrotation
            End Site
            {
              OFFSET 1 0 0
            }
          }
          JOINT rightEye
          {
            OFFSET -3.6576 8.04674 8.04672
            CHANNELS 3 Zrotation Xrotation Yrotation
            End Site
            {
              OFFSET 1 0 0
            }
          }
        }
      }
      JOINT rCollar
      {
        OFFSET -2.68224 19.2634 -4.8768
        CHANNELS 3 Zrotation Xrotation Yrotation
        JOINT rShldr
        {
          OFFSET -8.77824 -1.95073 1.46304
          CHANNELS 3 Zrotation Xrotation Yrotation
          JOINT rForeArm
          {
            OFFSET -28.1742 -1.7115 0.48768
            CHANNELS 3 Zrotation Xrotation Yrotation
            JOINT rHand
            {
              OFFSET -22.5879 0.773209 7.07136
              CHANNELS 3 Zrotation Xrotation Yrotation
              JOINT rThumb1
              {
                OFFSET -1.2192 -0.487915 3.41376
                CHANNELS 3 Zrotation Xrotation Yrotation
                JOINT rThumb2
                {
                  OFFSET -3.37035 -0.52449 3.41376
                  CHANNELS 3 Zrotation Xrotation Yrotation
                  End Site
                  {
                    OFFSET -1.78271 -1.18214 1.43049
                  }
                }
              }
              JOINT rIndex1
              {
                OFFSET -7.75947 0.938293 5.60832
                CHANNELS 3 Zrotation Xrotation Yrotation
                JOINT rIndex2
                {
                  OFFSET -2.54057 -0.884171 1.56538
                  CHANNELS 3 Zrotation Xrotation Yrotation
                  End Site
                  {
                    OFFSET -1.62519 -0.234802 1.16502
                  }
                }
              }
              JOINT rMid1
              {
                OFFSET -8.24714 1.18213 3.41376
                CHANNELS 3 Zrotation Xrotation Yrotation
                JOINT rMid2
                {
                  OFFSET -3.10165 -0.590103 1.0647
                  CHANNELS 3 Zrotation Xrotation Yrotation
                  End Site
                  {
                    OFFSET -2.48547 -0.328903 0.83742
                  }
                }
              }
              JOINT rRing1
              {
                OFFSET -8.82822 0.546677 1.51678
                CHANNELS 3 Zrotation Xrotation Yrotation
                JOINT rRing2
                {
                  OFFSET -2.60934 -0.819778 -0.0198488
                  CHANNELS 3 Zrotation Xrotation Yrotation
                  End Site
                  {
                    OFFSET -2.33842 -0.294052 0.168128
                  }
                }
              }
              JOINT rPinky1
              {
                OFFSET -8.27202 -0.0477905 -0.4584
                CHANNELS 3 Zrotation Xrotation Yrotation
                JOINT rPinky2
                {
                  OFFSET -1.82734 -0.647385 -0.700984
                  CHANNELS 3 Zrotation Xrotation Yrotation
                  End Site
                  {
                    OFFSET -1.69225 -0.51767 -0.607171
                  }
                }
              }
            }
          }
        }
      }
      JOINT lCollar
      {
        OFFSET 2.68224 19.2634 -4.8768
        CHANNELS 3 Zrotation Xrotation Yrotation
        JOINT lShldr
        {
          OFFSET 8.77824 -1.95073 1.46304
          CHANNELS 3 Zrotation Xrotation Yrotation
          JOINT lForeArm
          {
            OFFSET 28.1742 -1.7115 0.48768
            CHANNELS 3 Zrotation Xrotation Yrotation
            JOINT lHand
            {
              OFFSET 22.5879 0.773209 7.07136
              CHANNELS 3 Zrotation Xrotation Yrotation
              JOINT lThumb1
              {
                OFFSET 1.2192 -0.487915 3.41376
                CHANNELS 3 Zrotation Xrotation Yrotation
                JOINT lThumb2
                {
                  OFFSET 3.37035 -0.52449 3.41376
                  CHANNELS 3 Zrotation Xrotation Yrotation
                  End Site
                  {
                    OFFSET 1.78271 -1.18214 1.43049
                  }
                }
              }
              JOINT lIndex1
              {
                OFFSET 7.75947 0.938293 5.60832
                CHANNELS 3 Zrotation Xrotation Yrotation
                JOINT lIndex2
                {
                  OFFSET 2.54057 -0.884171 1.56538
                  CHANNELS 3 Zrotation Xrotation Yrotation
                  End Site
                  {
                    OFFSET 1.62519 -0.234802 1.16502
                  }
                }
              }
              JOINT lMid1
              {
                OFFSET 8.24714 1.18213 3.41376
                CHANNELS 3 Zrotation Xrotation Yrotation
                JOINT lMid2
                {
                  OFFSET 3.10165 -0.590103 1.0647
                  CHANNELS 3 Zrotation Xrotation Yrotation
                  End Site
                  {
                    OFFSET 2.48547 -0.328903 0.83742
                  }
                }
              }
              JOINT lRing1
              {
                OFFSET 8.82822 0.546677 1.51678
                CHANNELS 3 Zrotation Xrotation Yrotation
                JOINT lRing2
                {
                  OFFSET 2.60934 -0.819778 -0.0198488
                  CHANNELS 3 Zrotation Xrotation Yrotation
                  End Site
                  {
                    OFFSET 2.33842 -0.294052 0.168128
                  }
                }
              }
              JOINT lPinky1
              {
                OFFSET 8.27202 -0.0477905 -0.4584
                CHANNELS 3 Zrotation Xrotation Yrotation
                JOINT lPinky2
                {
                  OFFSET 1.82734 -0.647385 -0.700984
                  CHANNELS 3 Zrotation Xrotation Yrotation
                  End Site
                  {
                    OFFSET 1.69225 -0.51767 -0.607171
                  }
                }
              }
            }
          }
        }
      }
    }
  }
  JOINT rButtock
  {
    OFFSET -8.77824 4.35084 1.2192
    CHANNELS 3 Zrotation Xrotation Yrotation
    JOINT rThigh
    {
      OFFSET 0 -1.70687 -2.19456
      CHANNELS 3 Zrotation Xrotation Yrotation
      JOINT rShin
      {
        OFFSET 0 -36.8199 0.73152
        CHANNELS 3 Zrotation Xrotation Yrotation
        JOINT rFoot
        {
          OFFSET 0.73152 -45.1104 -5.12064
          CHANNELS 3 Zrotation Xrotation Yrotation
          End Site
          {
            OFFSET -1.1221 -3.69964 12.103
          }
        }
      }
    }
  }
  JOINT lButtock
  {
    OFFSET 8.77824 4.35084 1.2192
    CHANNELS 3 Zrotation Xrotation Yrotation
    JOINT lThigh
    {
      OFFSET 0 -1.70687 -2.19456
      CHANNELS 3 Zrotation Xrotation Yrotation
      JOINT lShin
      {
        OFFSET 0 -36.8199 0.73152
        CHANNELS 3 Zrotation Xrotation Yrotation
        JOINT lFoot
        {
          OFFSET -0.73152 -45.1104 -5.12064
          CHANNELS 3 Zrotation Xrotation Yrotation
          End Site
          {
            OFFSET 1.1221 -3.69964 12.103
          }
        }
      }
    }
  }
}
MOTION
Frames:	4
Frame Time:	0.03333
0.11100006895139813 52.645198822021484 -31.78150024265051 -198.22200536727905 84.29450154304504 -192.8529953956604 -8.556539788842201 18.810099810361862 16.66529953479767 -4.279709905385971 -11.110999882221222 3.8627199456095695 0.3653620043769479 14.843000024557114 12.897300124168396 -1.7556900344789028 -23.043901026248932 25.097700655460358 0.0 0.0 0.0 0.0 0.0 0.0 0.0 0.0 0.0 34.766999781131744 64.28479850292206 28.509199619293213 -27.62970060110092 -42.04109966754913 87.6639997959137 -0.010503400189918466 2.9248299077153206 0.41141901165246964 8.415668162342627e-10 -1.0589928933768533e-08 -3.248601387895178e-09 1.460591647628462e-09 -1.833797114159097e-08 -5.617266651825048e-09 8.415668162342627e-10 -1.0589928933768533e-08 -3.248601387895178e-09 7.7309102565050125 5.474880114197731 0.41731400415301323 8.415668162342627e-10 -1.0589928933768533e-08 -3.248601387895178e-09 2.905540131032467 0.9651830233633518 0.102901995414868 8.415668162342627e-10 -1.0589928933768533e-08 -3.248601387895178e-09 10.27859978377819 0.7318009994924068 0.025912300043273717 8.415668162342627e-10 -1.0589928933768533e-08 -3.248601387895178e-09 2.221670038998127 -0.733487019315362 -0.2089200052432716 0.0 0.0 0.0 -51.021398305892944 11.00019983947277 -14.826300591230392 27.96759992837906 -40.58190017938614 -84.97079908847809 1.7642600275576115 -34.852900207042694 5.616589933633804 4.6848924739606446e-09 1.6063950170064345e-09 4.931735020363703e-09 7.966747261889395e-09 3.0030378184164874e-09 8.630536285636481e-09 4.6848924739606446e-09 1.6063950170064345e-09 4.931735020363703e-09 -7.7309102565050125 5.474880114197731 -0.41731400415301323 4.6848924739606446e-09 1.6063950170064345e-09 4.931735020363703e-09 -2.905540131032467 0.9651830233633518 -0.102901995414868 4.6848924739606446e-09 1.6063950170064345e-09 4.931735020363703e-09 -10.27859978377819 0.7318009994924068 -0.025912300043273717 4.6848924739606446e-09 1.6063950170064345e-09 4.931735020363703e-09 -2.221670038998127 -0.733487019315362 0.2089200052432716 0.0 0.0 0.0 -57.80049920082092 -41.734201312065125 -46.30110204219818 -69.19019937515259 89.01399850845337 70.86820006370544 -6.491450071334839 -22.297899574041367 -13.40529978275299 0.0 0.0 0.0 57.593700885772705 -50.097302198410034 40.62930017709732 3.082430139183998 76.00280106067657 -4.076960049569607 -2.2360200248658657 -16.156500577926636 -2.5143099389970303
-0.011399931740015745 52.09769821166992 -32.30120023339987 -194.96799230575562 84.49250221252441 -188.91300201416016 -8.348600193858147 17.74670049548149 16.82979941368103 -4.3164099007844925 -11.350800096988678 3.9274798706173897 0.4371970100328326 14.87250030040741 12.887299507856369 -1.6701999865472317 -22.851801216602325 25.0900000333786 0.0 0.0 0.0 0.0 0.0 0.0 0.0 0.0 0.0 33.41110020875931 64.692901968956 29.605399668216705 -27.578100264072418 -42.231799364089966 88.022101521492 -0.009296510252170265 2.754610050469637 0.3874359978362918 -1.5859313862165436e-10 -5.361471266951412e-09 -2.5988811103161424e-09 -2.6474822334421333e-10 -9.303278147854144e-09 -4.496882866078522e-09 -1.5859313862165436e-10 -5.361471266951412e-09 -2.5988811103161424e-09 7.7309102565050125 5.474880114197731 0.41731400415301323 -1.5859313862165436e-10 -5.361471266951412e-09 -2.5988811103161424e-09 2.905540131032467 0.9651830233633518 0.102901995414868 -1.5859313862165436e-10 -5.361471266951412e-09 -2.5988811103161424e-09 10.27859978377819 0.7318009994924068 0.025912300043273717 -1.5859313862165436e-10 -5.361471266951412e-09 -2.5988811103161424e-09 2.221670038998127 -0.733487019315362 -0.2089200052432716 0.0 0.0 0.0 -50.39360046386719 10.684499815106392 -15.128600299358368 27.93159931898117 -40.76069891452789 -85.29589891433716 1.8481199629604816 -35.543499290943146 5.762459859251976 5.2015991514053894e-09 1.0155076779483352e-09 4.73733052785974e-09 8.858194178174017e-09 2.0105517251067795e-09 8.313350008393172e-09 5.2015991514053894e-09 1.0155076779483352e-09 4.73733052785974e-09 -7.7309102565050125 5.474880114197731 -0.41731400415301323 5.2015991514053894e-09 1.0155076779483352e-09 4.73733052785974e-09 -2.905540131032467 0.9651830233633518 -0.102901995414868 5.2015991514053894e-09 1.0155076779483352e-09 4.73733052785974e-09 -10.27859978377819 0.7318009994924068 -0.025912300043273717 5.2015991514053894e-09 1.0155076779483352e-09 4.73733052785974e-09 -2.221670038998127 -0.733487019315362 0.2089200052432716 0.0 0.0 0.0 -59.50969934463501 -41.89359962940216 -48.1173974275589 -93.4283995628357 89.0718001127243 95.12570142745972 -6.1156900227069855 -22.527398765087128 -12.66910046339035 0.0 0.0 0.0 60.79789996147156 -50.73910117149353 44.03170108795166 3.643060103058815 77.6870995759964 -4.630729928612709 -2.490340042859316 -17.05130025744438 -2.9999498650431633
-0.1035999353043735 51.41749954223633 -32.81210025399923 -190.88500499725342 84.57950234413147 -184.1460084915161 -8.101480230689049 16.785199642181396 16.899599879980087 -4.364839866757393 -11.635200083255768 3.9606698602437973 0.49364099744707346 14.905699342489243 12.895399779081345 -1.589760035276413 -22.708799242973328 25.115800201892853 0.0 0.0 0.0 0.0 0.0 0.0 0.0 0.0 0.0 32.0357009768486 65.08820056915283 30.66000133752823 -27.518600821495056 -42.441700994968414 88.42039883136749 -0.00838255014969036 2.613199967890978 0.3675190033391118 -1.5577938938804436e-09 3.803677373070968e-09 -8.901679393602535e-10 -2.682014610400074e-09 6.548361852765083e-09 -1.5347723092418164e-09 -1.5577938938804436e-09 3.803677373070968e-09 -8.901679393602535e-10 7.7309102565050125 5.474880114197731 0.41731400415301323 -1.5577938938804436e-09 3.803677373070968e-09 -8.901679393602535e-10 2.905540131032467 0.9651830233633518 0.102901995414868 -1.5577938938804436e-09 3.803677373070968e-09 -8.901679393602535e-10 10.27859978377819 0.7318009994924068 0.025912300043273717 -1.5577938938804436e-09 3.803677373070968e-09 -8.901679393602535e-10 2.221670038998127 -0.733487019315362 -0.2089200052432716 0.0 0.0 0.0 -49.96180236339569 10.323300138115883 -15.291300415992737 27.884800136089325 -40.98279923200607 -85.70150256156921 1.9319800660014153 -36.20590031147003 5.905190259218216 4.6209436277422355e-09 3.325340003357269e-11 3.356035449542105e-09 7.882334784881095e-09 2.8904878490720876e-10 5.924221113673411e-09 4.6209436277422355e-09 3.325340003357269e-11 3.356035449542105e-09 -7.7309102565050125 5.474880114197731 -0.41731400415301323 4.6209436277422355e-09 3.325340003357269e-11 3.356035449542105e-09 -2.905540131032467 0.9651830233633518 -0.102901995414868 4.6209436277422355e-09 3.325340003357269e-11 3.356035449542105e-09 -10.27859978377819 0.7318009994924068 -0.025912300043273717 4.6209436277422355e-09 3.325340003357269e-11 3.356035449542105e-09 -2.221670038998127 -0.733487019315362 0.2089200052432716 0.0 0.0 0.0 -61.45430088043213 -41.9640988111496 -50.06919801235199 -122.83299565315247 88.88560116291046 124.52399969100952 -5.417980067431927 -22.763999104499817 -11.33800059556961 0.0 0.0 0.0 64.06429946422577 -51.2993985414505 47.497501373291016 4.388340041041374 79.37080264091492 -5.36219984292984 -2.8495701402425766 -17.81850054860115 -3.6983199790120125
-0.18269993318244815 50.744598388671875 -33.289700262248516 -186.65700674057007 84.53719854354858 -179.37299609184265 -7.752960026264191 16.04859933257103 16.907300502061844 -4.416010044515133 -11.949300169944763 3.9724501222372055 0.5589760048314929 14.987800419330597 12.905099987983704 -1.604589968919754 -22.678600251674652 25.131898820400238 0.0 0.0 0.0 0.0 0.0 0.0 0.0 0.0 0.0 30.87060034275055 65.42239844799042 31.48229956626892 -27.45820015668869 -42.64849931001663 88.81359994411469 -0.008191070155589841 2.5818199664354324 0.36309901624917984 -1.6754597709223162e-09 8.318465916090645e-09 5.678657544194721e-10 -2.887929895223351e-09 1.4365468814503402e-08 9.822542779147625e-10 -1.6754597709223162e-09 8.318465916090645e-09 5.678657544194721e-10 7.7309102565050125 5.474880114197731 0.41731400415301323 -1.6754597709223162e-09 8.318465916090645e-09 5.678657544194721e-10 2.905540131032467 0.9651830233633518 0.102901995414868 -1.6754597709223162e-09 8.318465916090645e-09 5.678657544194721e-10 10.27859978377819 0.7318009994924068 0.025912300043273717 -1.6754597709223162e-09 8.318465916090645e-09 5.678657544194721e-10 2.221670038998127 -0.733487019315362 -0.2089200052432716 0.0 0.0 0.0 -49.80080008506775 9.959660321474075 -15.384200066328049 27.824799120426178 -41.256000995635986 -86.20089769363403 1.989739928394556 -36.65090024471283 6.002370044589043 2.4569146717112744e-09 -2.7114310796605423e-10 1.468265509174671e-09 4.1950443119276315e-09 -3.4020786188193597e-10 2.6142288334085606e-09 2.4569146717112744e-09 -2.7114310796605423e-10 1.468265509174671e-09 -7.7309102565050125 5.474880114197731 -0.41731400415301323 2.4569146717112744e-09 -2.7114310796605423e-10 1.468265509174671e-09 -2.905540131032467 0.9651830233633518 -0.102901995414868 2.4569146717112744e-09 -2.7114310796605423e-10 1.468265509174671e-09 -10.27859978377819 0.7318009994924068 -0.025912300043273717 2.4569146717112744e-09 -2.7114310796605423e-10 1.468265509174671e-09 -2.221670038998127 -0.733487019315362 0.2089200052432716 0.0 0.0 0.0 -63.45109820365906 -41.72410011291504 -52.26249933242798 -142.72099614143372 88.43349874019623 144.40200090408325 -4.741270132362843 -23.010598719120026 -10.036899894475937 0.0 0.0 0.0 67.21279978752136 -51.82480037212372 50.73210060596466 5.427719838917255 81.05749905109406 -6.376919746398926 -3.316420018672943 -18.544200360774994 -4.59723986685276
